<?xml version="1.0" standalone="no"?>
<!DOCTYPE svg PUBLIC "-//W3C//DTD SVG 20010904//EN"
 "http://www.w3.org/TR/2001/REC-SVG-20010904/DTD/svg10.dtd">
<svg version="1.0" xmlns="http://www.w3.org/2000/svg"
 width="149.000000pt" height="148.000000pt" viewBox="0 0 149.000000 148.000000"
 preserveAspectRatio="xMidYMid meet">

<g transform="translate(0.000000,148.000000) scale(0.100000,-0.100000)"
fill="#FFFFFF" stroke="none">
<path d="M556 1448 c-3 -18 -10 -66 -16 -107 -11 -78 -16 -91 -30 -91 -5 0
-33 -15 -62 -34 -39 -25 -58 -31 -73 -25 -109 45 -187 71 -198 66 -17 -6 -177
-279 -177 -300 0 -9 39 -47 88 -85 l87 -70 -2 -77 -1 -78 -86 -66 c-47 -35
-86 -72 -86 -81 0 -16 149 -283 169 -303 7 -7 46 4 118 33 84 33 110 40 122
31 9 -6 39 -23 67 -38 l52 -26 11 -68 c6 -37 11 -82 11 -98 l0 -31 195 0 195
0 1 43 c0 23 6 67 12 97 11 51 15 56 67 87 30 18 60 35 67 38 6 4 60 -13 119
-36 105 -42 107 -43 121 -23 39 52 163 275 163 291 0 12 -33 44 -87 86 l-88
67 3 79 3 79 85 67 c46 36 84 73 84 82 0 14 -82 163 -143 261 -15 23 -33 42
-41 42 -8 0 -58 -18 -112 -39 -83 -33 -101 -37 -114 -26 -8 7 -38 25 -67 39
l-51 27 -12 87 c-6 48 -14 97 -16 110 -4 22 -6 22 -189 22 l-184 0 -5 -32z
m294 -469 c55 -25 114 -80 143 -134 17 -31 22 -57 22 -120 0 -69 -4 -86 -27
-126 -32 -54 -87 -106 -136 -126 -40 -17 -129 -21 -184 -10 -50 10 -129 74
-164 134 -26 42 -29 57 -29 128 0 92 19 136 82 197 54 52 115 78 188 78 39 0
76 -8 105 -21z"/>
</g>
</svg>
