<?xml version="1.0" encoding="utf-8"?>
<!DOCTYPE svg PUBLIC "-//W3C//DTD SVG 1.1//EN" "http://www.w3.org/Graphics/SVG/1.1/DTD/svg11.dtd">
<svg version="1.1" xmlns="http://www.w3.org/2000/svg" xmlns:xlink="http://www.w3.org/1999/xlink" x="0px" y="0px" viewBox="0 0 256 256" enable-background="new 0 0 256 256" xml:space="preserve">
<g><g><g><path fill="#FFFFFF" d="M35.3,57.8L10,83.1l25.3,25.6l25.3,25.6l3.6-3.5l3.5-3.5l-19.4-19.5L28.8,88.5l77.5,0.2c77.1,0.2,77.5,0.2,82.3,1.4c29.7,8,49.3,34.4,47.8,64.4c-1.3,25.7-18.2,47.8-42.8,56.2c-9.6,3.3-9.8,3.3-72.6,3.3H62.8v4.8v4.9l60.5-0.2c65.6-0.2,62.7-0.1,73.1-3.6c21.5-7.2,38.8-24.6,46-46c4.7-13.9,4.7-31.3,0-45.2c-7.4-22.2-26.5-40.7-48.3-46.7c-10.6-3-10.7-3-91.2-3H27.6l20.1-20.1l20-20l-3.2-3.2c-1.8-1.7-3.3-3.1-3.4-3.1C60.8,32.4,49.3,43.8,35.3,57.8z"/></g></g></g>
</svg>