<?xml version="1.0" standalone="no"?>
<!DOCTYPE svg PUBLIC "-//W3C//DTD SVG 20010904//EN"
 "http://www.w3.org/TR/2001/REC-SVG-20010904/DTD/svg10.dtd">
<svg version="1.0" xmlns="http://www.w3.org/2000/svg"
 width="512.000000pt" height="512.000000pt" viewBox="0 0 512.000000 512.000000"
 preserveAspectRatio="xMidYMid meet">
<metadata>
Created by potrace 1.16, written by Peter Selinger 2001-2019
</metadata>
<g transform="translate(0.000000,512.000000) scale(0.100000,-0.100000)"
fill="white" stroke="white">
<path fill="red" d="M972 4147 l-652 -652 0 -935 0 -935 653 -653 652 -652 935 0 935 0
653 653 652 652 0 935 0 935 -653 653 -652 652 -935 0 -935 0 -653 -653z
m3060 -115 l608 -607 0 -865 0 -865 -608 -607 -607 -608 -865 0 -865 0 -607
608 -608 607 0 865 0 865 608 607 607 608 865 0 865 0 607 -608z"/>
<path fill="red" d="M1202 3917 l-562 -562 0 -795 0 -795 563 -563 562 -562 795 0 795 0
563 563 562 562 0 795 0 795 -563 563 -562 562 -795 0 -795 0 -563 -563z m115
-819 c113 -42 203 -168 203 -284 0 -56 -33 -94 -80 -94 -40 0 -80 39 -80 77 0
45 -41 115 -79 137 -73 42 -174 16 -215 -54 -26 -44 -26 -116 0 -161 24 -43
94 -79 151 -79 113 0 240 -91 281 -203 99 -262 -153 -514 -415 -415 -113 42
-203 168 -203 284 0 56 33 94 80 94 40 0 80 -39 80 -77 0 -45 41 -115 79 -137
45 -26 117 -26 161 0 70 41 96 142 54 215 -24 43 -94 79 -151 79 -114 0 -239
91 -282 205 -19 49 -22 74 -19 135 13 220 226 357 435 278z m1138 -3 c16 -15
25 -36 25 -55 0 -19 -9 -40 -25 -55 -23 -24 -29 -25 -160 -25 l-135 0 0 -455
0 -456 -25 -24 c-15 -16 -36 -25 -55 -25 -19 0 -40 9 -55 25 l-25 24 0 456 0
455 -135 0 c-131 0 -137 1 -160 25 -16 15 -25 36 -25 55 0 19 9 40 25 55 l24
25 351 0 351 0 24 -25z m622 3 c39 -14 74 -38 109 -72 89 -90 94 -113 94 -466
0 -353 -5 -376 -94 -466 -127 -126 -325 -126 -452 0 -89 90 -94 113 -94 466 0
282 1 303 22 357 60 161 248 244 415 181z m960 0 c77 -29 152 -104 181 -181
46 -122 19 -252 -72 -343 -79 -79 -131 -94 -316 -94 l-150 0 0 -215 c0 -216 0
-216 -25 -240 -32 -33 -78 -33 -110 0 l-25 24 0 511 0 511 25 24 c24 25 25 25
229 25 186 0 211 -2 263 -22z"/>
<path fill="red" d="M2890 2938 c-33 -17 -51 -35 -67 -68 -22 -43 -23 -54 -23 -310 0
-256 1 -267 23 -310 58 -117 219 -114 277 5 20 42 21 55 18 317 -3 264 -4 274
-26 310 -24 39 -91 78 -133 78 -14 0 -45 -10 -69 -22z"/>
<path fill="red" d="M3680 2800 l0 -160 133 0 c120 0 138 2 177 23 48 25 90 89 90 136 0
50 -41 114 -90 139 -39 19 -59 22 -177 22 l-133 0 0 -160z"/>
</g>
</svg>
