<?xml version="1.0" standalone="no"?>
<!DOCTYPE svg PUBLIC "-//W3C//DTD SVG 20010904//EN"
 "http://www.w3.org/TR/2001/REC-SVG-20010904/DTD/svg10.dtd">
<svg version="1.0" xmlns="http://www.w3.org/2000/svg"
 width="800.000000pt" height="600.000000pt" viewBox="0 0 800.000000 600.000000"
 preserveAspectRatio="xMidYMid meet">

<g transform="translate(0.000000,600.000000) scale(0.100000,-0.100000)"
fill="#00000000" stroke="10px">
<path d="M0 3000 l0 -3000 4000 0 4000 0 0 3000 0 3000 -4000 0 -4000 0 0
-3000z m4245 2825 c308 -90 541 -328 627 -640 31 -115 31 -335 0 -450 -85
-310 -317 -547 -628 -641 -80 -25 -104 -27 -244 -27 -139 0 -164 2 -243 26
-315 96 -543 329 -629 642 -31 115 -31 335 0 450 96 349 383 609 735 666 98
15 283 3 382 -26z m-20 -1954 c179 -48 375 -176 483 -316 66 -87 135 -225 163
-330 31 -114 32 -335 1 -450 -67 -250 -240 -463 -467 -576 -150 -74 -229 -92
-405 -92 -176 0 -255 18 -405 92 -223 112 -386 308 -461 556 -24 79 -27 107
-28 235 0 161 12 228 65 356 116 279 358 475 665 539 97 20 285 13 389 -14z
m18 -1965 c254 -75 455 -244 567 -478 213 -445 24 -985 -416 -1195 -147 -69
-224 -86 -394 -86 -174 0 -253 18 -405 93 -226 111 -400 325 -467 575 -31 116
-31 337 0 450 96 349 383 609 735 666 97 15 283 3 380 -25z"/>
</g>
</svg>
